<svg aria-hidden="true" style="position: absolute; width: 0; height: 0; overflow: hidden;" version="1.1" xmlns="http://www.w3.org/2000/svg" xmlns:xlink="http://www.w3.org/1999/xlink">
<defs>
<symbol id="facebook" viewBox="0 0 32 32">
<path d="M26.684 1.551h-21.64c-2.341 0-4.239 1.898-4.239 4.239v0 21.64c0 2.341 1.898 4.239 4.239 4.239v0h9.848v-10.993h-3.723v-4.288h3.723v-3.159c0-1.79 0.495-3.181 1.487-4.169 0.988-0.99 2.33-1.487 4.028-1.487 1.696 0 2.795 0.066 3.298 0.188v3.819h-2.263c-0.817 0-1.374 0.173-1.673 0.52-0.297 0.344-0.446 0.864-0.446 1.555v2.733h4.241l-0.565 4.288h-3.676v10.993h7.36c2.341 0 4.239-1.898 4.239-4.239v0-21.64c0-2.341-1.898-4.239-4.239-4.239v0z"></path>
</symbol>
<symbol id="github" viewBox="0 0 32 32">
<path d="M20.157 31.932c10.678-0.307 11.729-2.556 11.729-15.316 0-14.080-1.28-15.36-15.36-15.36s-15.36 1.28-15.36 15.36c0 12.794 1.057 15.020 11.812 15.319 0.080-0.106 0.128-0.24 0.128-0.386 0-0.008-0-0.017-0-0.025l0 0.001c0-0.32-0.013-3.606-0.019-4.736-3.887 0.819-4.708-1.816-4.708-1.816-0.636-1.564-1.553-1.981-1.553-1.981-1.267-0.84 0.096-0.823 0.096-0.823 1.403 0.096 2.141 1.396 2.141 1.396 1.247 2.070 3.272 1.472 4.068 1.126 0.128-0.876 0.488-1.472 0.887-1.811-3.104-0.342-6.367-1.504-6.367-6.694 0-1.478 0.545-2.687 1.439-3.634-0.145-0.343-0.623-1.72 0.137-3.584 0 0 1.174-0.365 3.844 1.388 1.050-0.288 2.255-0.454 3.499-0.456h0.001c1.187 0.005 2.382 0.155 3.5 0.456 2.669-1.752 3.84-1.388 3.84-1.388 0.763 1.864 0.283 3.241 0.138 3.584 0.896 0.947 1.437 2.156 1.437 3.635 0 5.202-3.268 6.349-6.382 6.682 0.502 0.419 0.948 1.245 0.948 2.509-0.002 2.239-0.008 4.398-0.018 6.557l0.002-0.41c0 0.141 0.038 0.287 0.122 0.41z"></path>
</symbol>
<symbol id="instagram" viewBox="0 0 32 32">
<path d="M25.728 9.007c0.001 0.017 0.001 0.037 0.001 0.057 0 0.964-0.781 1.745-1.745 1.745s-1.745-0.781-1.745-1.745c0-0.020 0-0.040 0.001-0.060l-0 0.003c0.032-0.939 0.8-1.688 1.744-1.688s1.712 0.749 1.744 1.685l0 0.003zM31.262 16.875v0.023l-0.1 6.317c-0.055 4.739-3.881 8.566-8.614 8.621l-0.005 0-6.362 0.098-6.317-0.1c-4.739-0.055-8.566-3.881-8.621-8.614l-0-0.005-0.098-6.34v-0.023l0.1-6.317c0.055-4.739 3.882-8.567 8.616-8.621l0.005-0 6.359-0.098 6.317 0.1c4.739 0.055 8.567 3.882 8.621 8.616l0 0.005 0.098 6.338zM28.457 16.875l-0.098-6.296c-0.039-3.221-2.639-5.821-5.856-5.86l-0.004-0-6.296-0.098-6.296 0.098c-3.221 0.038-5.822 2.639-5.86 5.856l-0 0.004-0.098 6.296 0.098 6.296c0.039 3.221 2.639 5.821 5.856 5.86l0.004 0 6.296 0.098 6.296-0.098c3.221-0.039 5.821-2.639 5.86-5.856l0-0.004 0.098-6.296zM23.936 16.875c0 4.271-3.462 7.733-7.733 7.733s-7.733-3.462-7.733-7.733v0c0-4.271 3.462-7.733 7.733-7.733s7.733 3.462 7.733 7.733v0zM21.131 16.875c0.001-0.029 0.001-0.062 0.001-0.096 0-2.722-2.206-4.928-4.928-4.928s-4.928 2.206-4.928 4.928c0 0.034 0 0.068 0.001 0.101l-0-0.005c0.054 2.68 2.239 4.832 4.927 4.832s4.873-2.152 4.927-4.827l0-0.005z"></path>
</symbol>
<symbol id="linkedin" viewBox="0 0 32 32">
<path d="M26.379 1.816h-21.64c-2.341 0-4.239 1.898-4.239 4.239v21.64c0 2.341 1.898 4.239 4.239 4.239v0h21.64c2.341 0 4.239-1.898 4.239-4.239v0-21.64c0-2.341-1.898-4.239-4.239-4.239v0zM10.541 25.882c0 0.075-0.051 0.188-0.151 0.341-0.151 0.102-0.264 0.151-0.339 0.151h-3.482c-0.075 0-0.188-0.049-0.339-0.151-0.104-0.151-0.154-0.264-0.154-0.339v-12.23c0-0.075 0.051-0.188 0.151-0.339 0.151-0.102 0.264-0.151 0.341-0.151h3.482c0.075 0 0.188 0.049 0.339 0.151 0.102 0.151 0.152 0.264 0.152 0.339v12.224zM9.976 11.087c-0.412 0.42-0.985 0.68-1.619 0.68-0.017 0-0.034-0-0.052-0.001l0.003 0c-0.657 0-1.21-0.226-1.666-0.681-0.421-0.412-0.682-0.985-0.682-1.62 0-0.016 0-0.032 0-0.049l-0 0.002c0-0.631 0.228-1.173 0.681-1.626 0.418-0.443 1.010-0.719 1.666-0.719s1.248 0.276 1.665 0.718l0.001 0.001c0.452 0.452 0.68 0.998 0.68 1.626 0 0.659-0.226 1.212-0.678 1.666zM25.338 25.882c-0.001 0.135-0.059 0.256-0.15 0.34l-0 0c-0.085 0.091-0.205 0.149-0.338 0.151h-3.558c-0.075 0-0.188-0.049-0.339-0.151-0.104-0.151-0.154-0.264-0.154-0.339v-7.456c0-0.634-0.113-1.126-0.339-1.48-0.28-0.301-0.734-0.452-1.365-0.452-0.808 0-1.387 0.237-1.741 0.717-0.328 0.48-0.489 1.161-0.489 2.044v6.622c-0.001 0.135-0.059 0.255-0.15 0.34l-0 0c-0.086 0.093-0.209 0.15-0.344 0.151h-3.482c-0.075 0-0.188-0.049-0.339-0.151-0.102-0.151-0.151-0.264-0.151-0.339v-12.228c0-0.075 0.049-0.188 0.151-0.339 0.151-0.102 0.264-0.151 0.339-0.151h3.369c0.102 0 0.201 0.023 0.301 0.075 0.053 0.024 0.104 0.113 0.152 0.264v0.188l0.038 0.075v0.303c0.834-0.806 1.982-1.21 3.445-1.21 1.64 0 2.901 0.392 3.784 1.173 0.909 0.832 1.363 2.033 1.363 3.595v8.25z"></path>
</symbol>
<symbol id="mainpage" viewBox="0 0 32 32">
<path d="M31.093 7.981h-1.192c-0.442 0-1.067 0.655-1.067 1.073v15.191c0 0.422 0.625 0.994 1.067 0.994h1.192v3.607h-10.792v-3.607h2.259v-15.97h-0.113l-5.271 19.576h-4.085l-5.208-19.576h-0.132v15.97h2.259v3.607h-9.035v-3.607h1.158c0.476 0 1.101-0.572 1.101-0.992v-15.192c0-0.42-0.625-1.075-1.101-1.075h-1.158v-3.605h11.298l3.708 14.167h0.104l3.746-14.167h11.262v3.607z"></path>
</symbol>
<symbol id="telegram" viewBox="0 0 32 32">
<path d="M24.512 30.372c-2.701-1.924-11.591-1.519-7.464-5.416l-4.127 3.897c-0.207 0.195-0.485 0.314-0.791 0.314-0.103 0-0.203-0.014-0.291-0.037-0.385-0.101-0.677-0.395-0.804-0.768-1.009-2.973-2.945-8.82-2.945-8.82s-4.143-1.313-7.299-2.257c-0.457-0.137-0.775-0.547-0.791-1.019l0 0.002c-0-0.011-0-0.021-0-0.032 0-0.473 0.297-0.876 0.723-1.035 7.037-2.604 24.255-9.064 29.845-11.133l-0.007 0.002c0.118-0.045 0.246-0.069 0.379-0.069 0.264 0 0.506 0.096 0.691 0.254l0.002 0.001c0.225 0.191 0.368 0.476 0.368 0.794 0 0.076-0.008 0.151-0.023 0.216-1.055 4.953-3.865 18.736-5.024 24.181l-0.002 0.010c-0.113 0.508-0.476 0.922-0.963 1.11l0.011-0.004c-0.176 0.067-0.367 0.104-0.567 0.104-0.345 0-0.664-0.11-0.92-0.294zM9.832 18.803l2.239 7.384 0.497-4.676 13.58-12.248c0.075-0.068 0.123-0.166 0.123-0.275 0-0.086-0.030-0.166-0.079-0.229l0.001 0.001c-0.070-0.088-0.177-0.145-0.298-0.145-0.076 0-0.146 0.022-0.205 0.060l0.002-0.001-15.859 10.128z"></path>
</symbol>
<symbol id="twitter" viewBox="0 0 32 32">
<path d="M28.508 10.022v0.824c-0.001 3.198-0.728 6.227-2.025 8.93l0.054-0.124c-1.314 2.829-3.343 5.225-6.088 7.189-2.746 1.965-5.922 2.946-9.532 2.946-3.49 0-6.645-0.992-9.468-2.978 0.312 0.043 0.802 0.064 1.468 0.064 2.942 0 5.51-0.951 7.706-2.85-0.010 0-0.021 0-0.032 0-1.358 0-2.602-0.491-3.563-1.306l0.008 0.007c-1.037-0.852-1.816-1.983-2.223-3.279l-0.013-0.049c0.275 0.085 0.668 0.126 1.176 0.126 0.589 0 1.137-0.064 1.647-0.188-1.412-0.339-2.588-1.12-3.529-2.345-0.941-1.224-1.412-2.618-1.412-4.181v-0.126c0.904 0.546 1.826 0.823 2.767 0.823-1.845-1.267-2.767-3.106-2.767-5.512 0-1.097 0.296-2.217 0.885-3.358 3.253 4.393 7.488 6.716 12.706 6.968-0.112-0.456-0.177-0.979-0.179-1.518v-0.001c0-1.816 0.599-3.379 1.794-4.687 1.199-1.31 2.66-1.963 4.386-1.963 1.803 0 3.313 0.696 4.529 2.089 1.528-0.339 2.842-0.866 3.94-1.581-0.471 1.562-1.372 2.786-2.705 3.671 1.374-0.209 2.549-0.568 3.529-1.075-0.832 1.358-1.849 2.51-3.033 3.462l-0.026 0.020z"></path>
</symbol>
</defs>
</svg>
